<?xml version="1.0" encoding="UTF-8" standalone="no"?><!-- Generator: Adobe Illustrator 21.1.0, SVG Export Plug-In . SVG Version: 6.00 Build 0)  -->

<svg xmlns:inkscape="http://www.inkscape.org/namespaces/inkscape" xmlns:sodipodi="http://sodipodi.sourceforge.net/DTD/sodipodi-0.dtd"
    style="enable-background:new 0 0 3200 2400;" id="paths" version="1.1" viewBox="0 0 3200 2400" x="0px"
    xmlns="http://www.w3.org/2000/svg" y="0px"
    inkscape:version="1.3.2 (091e20e, 2023-11-25, custom)" sodipodi:docname="path.svg" xml:space="preserve"><defs
   id="defs1" />
    <sodipodi:namedview bordercolor="#eeeeee" borderopacity="1" id="namedview1" pagecolor="#505050"
        inkscape:current-layer="paths" inkscape:cx="1600" inkscape:cy="872.63427"
        inkscape:deskcolor="#505050" inkscape:pagecheckerboard="0" inkscape:pageopacity="0"
        inkscape:showpageshadow="0" inkscape:window-height="1369" inkscape:window-maximized="1"
        inkscape:window-width="2560" inkscape:window-x="1912" inkscape:window-y="-8"
        inkscape:zoom="0.48875" />
    <style id="style1" type="text/css">
	.st0{fill:none;stroke:#FF0000;stroke-width:6.0002;stroke-miterlimit:10;}
</style>
    <path style="display:inline" class="st0"
        d="m 825.4,676.4 c 12.1,-2.3 23.3,-7.7 34.6,-12.6 15.8,-6.8 32,-12.6 48.6,-17.3 22.9,-6.5 46.9,-10.9 70.5,-8 19.8,2.4 42.1,10.7 55.3,26.4 3,3.6 5.6,9.4 10.6,10 4.3,0.6 14,-5.9 18.4,-7.3 13.5,-4.4 27.8,-6.8 42.1,-7 33.3,-0.4 66.6,10.9 99.4,5.4 27.2,-4.5 51.2,-20.2 77.5,-28.6 40.3,-12.9 83.9,-8.1 125.5,-0.7 20.7,3.7 41.4,8.1 62.2,11.2 16.9,2.5 40.5,8.4 55.9,-1.1 6.2,-3.8 12.3,-8.8 19.6,-9.6 11.6,-1.3 25.3,8.6 34.7,14.7 10.8,7.1 18.7,18.1 20.5,31 3.4,30.3 -24,42.7 -30.3,53 -6.3,10.3 -1.3,29.3 -4,41.3 -2.7,12 -15.7,18.7 -21,22.7 -5.3,4 -28,1.3 -29.3,11.7 -1.3,10.4 16.3,27.7 14,40.7 -2.3,13 -17.3,14.7 -17,27.7 0.3,13 8.7,26.7 -2.7,30.7 -11.4,4 -19.4,2.6 -22.7,17.3 -3.3,14.7 14,6 24,11 10,5 24,7 33.3,8 9.4,1 22.4,5.3 26.7,9 4.3,3.7 20.3,19 29.3,24.7 9,5.7 14,3.7 22,9 8,5.3 -1.3,17.3 10.7,24 12,6.7 22,-1 35.3,9.7 13.4,10.7 39,2 42.7,6.7 5.7,7.2 0,20.3 4,28.3 5.3,10.6 23.8,19.8 33.3,26.4 19.2,13.1 39.2,24.9 60.1,35.1 7,3.4 16,5.4 19.3,12.9 4.3,9.6 -2.4,21.2 -6.8,29.3 -3,5.5 -5.7,11.5 -5.4,17.8 0.5,9.3 8.3,17.5 17.4,19.7 9.2,2.2 19.1,-0.8 26.5,-6.6 2.3,-1.8 4.4,-3.9 7.1,-4.9 2.6,-1.1 6.1,-0.8 7.8,1.5 5.7,7.5 15.1,14.5 12.6,25.3 -2.1,9.4 -14.2,15.7 -21.7,20.1 -7.3,4.3 -15,11.8 -12.5,19.9 2.8,9.1 15.2,9.9 23.6,14.5 13.6,7.4 16.8,26 13.5,41.1 -4.7,21.6 -21.3,42 -20.6,64.3 1,31.6 12.3,42 20,50.3 7.7,8.3 10.3,19.3 6,27"
        id="path_x5F_red" inkscape:label="path_x5F_red" />
</svg>
