<svg xmlns="http://www.w3.org/2000/svg" height="174.341" width="212.051" version="1.1">
    <defs>
        <linearGradient id="a" y2="101.356" gradientUnits="userSpaceOnUse" y1="107.511" x2="101.202"
            x1="101.202">
            <stop stop-color="red" offset="0" />
            <stop stop-color="#fff" offset=".2" />
            <stop stop-color="#fff" offset=".501961" />
            <stop stop-color="#fff" offset=".8" />
            <stop stop-color="red" offset="1" />
        </linearGradient>
        <style type="text/css">.str0 {stroke:white;stroke-width:0.0762}
            .fil2 {fill:black}
            .fil1 {fill:#CC3300}
            .fil0 {fill:#DEB94E}
            .fil6 {fill:url(#a)}
            .fil5 {fill:url(#id1)}
            .fil4 {fill:url(#id2)}
            .fil3 {fill:url(#id3)}
            .fil7 {fill:url(#id4)}
        </style>
    </defs>
    <g transform="translate(214.711 -249.789)">
        <path
            d="m-182.322 256.369h-13.5698v29.6388h4.16262c3.9955 0 6.65963-4.24625 8.15863-12.8212l0.2495-1.24875h2.58062v30.3875h-2.66362c0-0.33375-0.083-0.66625-0.2495-1.24875-1.665-8.24125-4.41313-12.405-8.32563-12.405h-3.91262v33.635h7.24212v2.66375h-22.062v-2.66375h5.66113v-65.9375h-5.66113v-2.58h42.21v22.0625h-2.748c-0.33212-1.41625-0.74912-3.2475-1.33112-5.57875-2.1655-9.32375-4.66313-13.9038-7.65963-13.9038h-2.08162zm160.93 9.74125h7.4925v10.4062h8.65875v2.33125h-8.65875v34.8c0 3.33 0.3325 5.745 0.99875 7.24375 0.66625 1.415 1.665 2.08 3.16375 2.08 1.915 0 3.24625-1.08125 3.99625-3.4125 0.8325-2.33125 1.24875-6.41 1.24875-12.2388v-1.2475h1.7475v1.91375c0 0.91625 0.08375 1.66625 0.08375 2.24875 0 5.8275-0.8325 9.99-2.33 12.4875-1.5 2.4975-3.9975 3.74625-7.49375 3.74625-3.24625 0-5.5775-1.165-6.91-3.41375-1.3325-2.2475-1.9975-6.66-1.9975-13.2375v-30.97h-4.49625v-2.33125h4.49625v-10.4062zm-6.16125 12.405c-1.83125-0.99875-3.6625-1.74875-5.57875-2.24875-1.83-0.49875-3.6625-0.8325-5.41-0.8325-4.6625 0-8.40875 1.3325-11.24 3.91375-2.91375 2.58125-4.32875 5.91125-4.32875 9.9075 0 2.83 0.74875 5.16125 2.2475 7.075 1.49875 1.8325 4.9125 4.16375 10.1575 6.8275 4.32875 2.24875 7.07625 4.08 8.24 5.5775 1.1675 1.5 1.8325 3.33125 1.8325 5.57875 0 2.83125-0.915 5.16125-2.66375 7.16-1.74875 1.915-3.995 2.91375-6.66 2.91375-2.7475 0-4.6625-0.8325-5.8275-2.4975-1.0825-1.665-2.33125-6.74375-3.83-15.4025h-3.08v14.8188c1.33125 1.5825 3.16375 2.83125 5.49375 3.7475 2.2475 0.915 4.74625 1.415 7.32625 1.415 4.6625 0 8.40875-1.49875 11.3238-4.41125 2.9125-2.915 4.32875-6.57875 4.32875-10.99 0-3.08125-0.74875-5.66125-2.165-7.82625-1.49875-2.165-4.07875-4.24625-7.7425-6.3275-0.91625-0.58375-2.33125-1.24875-3.99625-2.165-5.745-3.08-8.575-6.16125-8.575-9.32375 0-2.33125 0.75-4.33 2.415-5.745 1.58125-1.49875 3.6625-2.2475 6.24375-2.2475 3.49625 0 6.0775 3.49625 7.65875 10.49 0.41625 1.915 0.75 3.49625 1.0825 4.6625h2.7475v-14.07zm-50.8688 15.9012 15.07 0.0825c0.0825-0.74875 0.0825-1.33125 0.0825-1.9975v-1.665c0-4.57875-0.49875-8.075-1.665-10.3238-1.08125-2.2475-2.7475-3.33-4.995-3.33-2.4975 0-4.49625 1.49875-5.99375 4.49625-1.49875 2.99625-2.33125 7.24375-2.49875 12.7375zm21.0638 11.6562h1.99875c-0.4175 6.57625-1.8325 11.5712-4.33 15.1512-2.41375 3.49625-5.74375 5.245-9.99 5.245-4.74625 0-8.65875-2.415-11.8225-7.32625-3.16375-4.82875-4.745-10.99-4.745-18.4825 0-7.41 1.58125-13.57 4.745-18.3162 3.08-4.8275 6.99375-7.15875 11.7388-7.15875 4.4125 0 7.82625 1.74875 10.2412 5.3275 2.41375 3.58 3.6625 8.575 3.6625 14.9862v1.3325h-22.8112v1.91375c-0.08375 0.91625-0.08375 1.66625-0.08375 2.165 0 7.57625 0.8325 13.2375 2.58125 17.0675 1.665 3.82875 4.1625 5.74375 7.41 5.74375 3.1625 0 5.8275-1.49875 7.82625-4.6625 1.9975-3.08 3.1625-7.40875 3.57875-12.9862zm-55.5295 19.065v-2.415h4.07863v-43.875h-4.07863v-2.33125h10.9058v7.66c0.75-2.83125 1.9975-5.07875 3.74625-6.66 1.74875-1.5825 3.7475-2.33125 6.0775-2.33125 0.91625 0 1.74875 0.0838 2.58125 0.41625 0.8325 0.25 1.665 0.665 2.41375 1.24875v17.7325l-2.41375-0.0837c-0.08375-0.5825-0.25-1.49875-0.41625-2.58-1.74875-8.9925-3.41375-13.4875-5.07875-13.4875-1.915 0-3.4975 1.5825-4.745 4.6625-1.3325 3.16375-1.99875 7.2425-1.99875 12.3212v27.3075h5.995v2.415h-17.067zm-26.5581 0v-2.415h4.07962v-43.875h-4.07962v-2.33125h10.9898v7.66c0.749-2.83125 1.99762-5.07875 3.74562-6.66 1.7485-1.5825 3.74613-2.33125 6.07763-2.33125 0.916 0 1.7485 0.0838 2.58112 0.41625 0.8325 0.25 1.665 0.665 2.4975 1.24875v17.7325l-2.414-0.0837c-0.167-0.5825-0.33312-1.49875-0.49962-2.58-1.665-8.9925-3.413-13.4875-5.0785-13.4875-1.83163 0-3.49663 1.5825-4.74613 4.6625-1.33162 3.16375-1.91462 7.2425-1.91462 12.3212v27.3075h5.91112v2.415h-17.1499zm120.551 31.719c-2.665 0-4.6625 1.83112-5.91125 5.49462-1.33125 3.66263-1.915 9.24125-1.915 16.8174 0 8.07575 0.58375 13.9029 1.915 17.5665 1.24875 3.663 3.33 5.41112 6.0775 5.41112 2.58125 0 4.57875-1.83162 5.74375-5.66062 1.25-3.82963 1.8325-9.82425 1.8325-17.983 0-7.16013-0.6675-12.5712-1.915-16.2349-1.3325-3.6625-3.2475-5.41112-5.8275-5.41112zm-2.9975 63.273h-15.985v-2.415h4.24625v-60.1089h-4.24625v-2.41462h10.5738v6.91012c0.8325-2.664 1.9975-4.66212 3.6625-6.07712 1.5825-1.4155 3.4975-2.165 5.66125-2.165 4.24625 0 7.7425 2.3315 10.49 6.99312 2.66375 4.66263 3.99625 10.7402 3.99625 18.3164 0 7.57575-1.3325 13.7369-4.1625 18.649-2.83 4.91162-6.24375 7.32612-10.3238 7.32612-1.9975 0-3.74625-0.583-5.32875-1.748-1.4975-1.2495-2.74625-2.91462-3.745-5.16162v19.4805h5.16125v2.415zm-70.6825-16.3184v-2.49712h4.1625v-43.7084h-4.1625v-2.41462h10.49v8.32613c0.8325-3.08101 2.08125-5.41201 3.83-7.16013 1.74875-1.6655 3.82875-2.498 6.24375-2.498 2.66375 0 4.82875 0.8325 6.41 2.4145 1.5825 1.58213 2.58125 3.99613 3.08125 7.24363 0.8325-3.08101 2.08125-5.41201 3.82875-7.16013 1.74875-1.6655 3.83-2.498 6.245-2.498 3.66375 0 6.24375 1.332 7.7425 3.91312 1.49875 2.58101 2.2475 7.74263 2.2475 15.4022v28.1396h4.16375v2.49712h-14.32v-2.49712h3.41375v-30.1381c0-5.66112-0.4175-9.40725-1.16625-11.2388-0.8325-1.832-2.2475-2.665-4.1625-2.665-2.415 0-4.33 1.4155-5.66125 4.33-1.24875 2.91313-1.915 7.07625-1.915 12.4048v27.3071h3.995v2.49712h-14.1525v-2.49712h3.4125v-34.2172c0-3.3305-0.415-5.82813-1.33125-7.40963-0.8325-1.665-2.2475-2.415-4.07875-2.415-2.415 0-4.24625 1.4155-5.495 4.2465-1.3325 2.91363-1.9975 6.99325-1.9975 12.4048v27.3906h3.995v2.49712h-14.8188zm-36.9641-48.6201h11.5717v36.7984c0 3.247 0.4165 5.66163 1.3325 7.32663 0.91563 1.66462 2.24763 2.49762 3.99563 2.49762 2.41462 0 4.24662-1.49912 5.57862-4.41262 1.24813-2.91363 1.91413-6.99363 1.91413-12.3218v-27.4736h-5.41113v-2.41462h12.7376v46.123h4.16375v2.49712h-11.0738v-8.57475c-0.666 2.99763-1.91513 5.49463-3.66263 7.24325-1.832 1.831-3.99662 2.664-6.41062 2.664-3.83013 0-6.57763-1.3325-8.15925-3.91262-1.5815-2.6645-2.331-7.74313-2.331-15.4852v-28.1401h-4.24563v-2.41462zm-27.4736-78.0085c-3.08062 0-5.24562 1.83125-6.57712 5.41125-1.3325 3.66375-2.08163 9.74125-2.08163 18.15s0.74913 14.4862 2.08163 18.1488c1.3315 3.74625 3.4965 5.57875 6.57712 5.57875 3.07963 0 5.24513-1.8325 6.57663-5.495 1.33212-3.66375 2.08112-9.74125 2.08112-18.2325 0-8.40875-0.749-14.4862-2.08112-18.15-1.3315-3.58-3.497-5.41125-6.57663-5.41125zm0-1.9975c-4.82862 0-8.74175 2.41375-11.9058 7.2425-3.24712 4.82875-4.82862 10.99-4.82862 18.3162 0 7.40875 1.5815 13.57 4.82862 18.3988 3.164 4.91125 7.16013 7.32625 11.9058 7.32625 4.74513 0 8.74175-2.4975 11.9882-7.32625 3.16363-4.9125 4.82863-11.0725 4.82863-18.3988 0-7.32625-1.665-13.4875-4.82863-18.3162-3.2465-4.82875-7.24312-7.2425-11.9882-7.2425zm23.061 61.4411c-2.0815-1.58212-4.3295-2.83062-6.66012-3.58012-2.3315-0.83225-4.74563-1.2485-7.24313-1.2485-7.82625 0-14.2364 3.5795-19.2315 10.6562-5.07912 7.15962-7.57662 16.4004-7.57662 27.7231 0 10.8232 2.3315 19.5649 6.91062 26.1421 4.57913 6.57712 10.7398 9.90662 18.3989 9.90662 3.08012 0 6.16075-0.666 9.07475-1.8315 2.99762-1.165 5.49412-2.83012 7.49262-4.91162v-24.31h4.07963v-2.58163h-19.7314v2.58163h7.41013v17.8159c0 4.07963-0.75 6.91063-2.082 8.57563-1.41413 1.66512-3.66313 2.49712-6.90975 2.49712-5.32813 0-9.24163-2.83012-11.8218-8.40862-2.498-5.57813-3.83013-14.1529-3.83013-25.7251 0-11.9888 1.49813-20.896 4.41213-26.8916 2.91462-5.99313 7.32625-8.90675 13.1544-8.90675 4.496 0 8.15863 6.57662 11.0728 19.897 0.166 0.6655 0.333 1.165 0.4165 1.498h2.664v-18.8979"
            fill-rule="evenodd" fill="#2d2c56" />
    </g>
</svg>
